<svg xmlns="http://www.w3.org/2000/svg" viewBox="0 0 24 24" fill="currentColor">
  <path d="M11.03 16.74c-2.31 0-4.32-.78-5.74-2.19-.19-.19-.17-.46.04-.63l.97-.83c.18-.15.44-.14.61.02.94.94 2.19 1.45 3.65 1.45 1.63 0 2.92-.76 2.92-2.07 0-1.12-.91-1.72-2.73-2.22-2.34-.63-4.14-1.39-4.14-3.56 0-2.06 1.77-3.69 4.38-3.69 1.93 0 3.51.63 4.7 1.75.21.19.23.47.05.65l-1.02.94c-.16.15-.41.15-.58-.02-.87-.85-1.92-1.27-3.05-1.27-1.39 0-2.39.69-2.39 1.75 0 1.09.91 1.5 2.87 2.05 2.5.7 3.99 1.5 3.99 3.73 0 2.27-1.74 4.14-4.53 4.14z"/>
</svg>
